<svg xmlns="http://www.w3.org/2000/svg" width="45.951" height="40.687" viewBox="0 0 45.951 40.687"><defs><style>.a{fill:#2c379d;stroke:#fff;stroke-width:0.9px;}</style></defs><g transform="translate(-0.579 -1.596)"><path class="a" d="M39.363,17.943A17.2,17.2,0,0,0,26.8,7.795l2.5-4L26.768,2.216,23.474,7.488A17.177,17.177,0,0,0,7.747,17.943a6.717,6.717,0,1,0,0,13.434,17.178,17.178,0,0,0,31.616,0,6.717,6.717,0,1,0,0-13.434Zm2.534,9.33a3.711,3.711,0,0,1-2.591,1.116l-1.934.037-.757,1.78a14.192,14.192,0,0,1-26.121,0l-.758-1.78L7.8,28.389a3.731,3.731,0,1,1,0-7.461l1.934-.036.758-1.78a14.192,14.192,0,0,1,26.121,0l.757,1.78,1.934.037A3.731,3.731,0,0,1,41.9,27.273Z" transform="translate(0 0)"/><path class="a" d="M11.813,16.313h3.734v3.734H11.813Z" transform="translate(3.53 4.614)"/><path class="a" d="M21.375,16.313h3.734v3.734H21.375Z" transform="translate(6.659 4.614)"/><path class="a" d="M19.841,28.841a7.466,7.466,0,0,0,7.466-7.466H12.375A7.466,7.466,0,0,0,19.841,28.841Z" transform="translate(3.714 6.271)"/></g></svg>