<svg id="Warstwa_1" data-name="Warstwa 1" xmlns="http://www.w3.org/2000/svg" width="77.5" height="77.5" viewBox="0 0 77.5 77.5"><defs><style>.cls-1{fill:#e1001e;}</style></defs><path class="cls-1" d="M27.9,20.12A16,16,0,0,0,14,48.84L7,55.94s-2.81,3,2.87,3h5.94a7.88,7.88,0,0,0,5.24-2.25c2.18-2,8.23-8.13,10.17-10.07A16,16,0,0,0,27.9,20.12Z"/><path class="cls-1" d="M63.51,20.13A16,16,0,1,0,49.6,48.84l-7,7.1s-2.81,3,2.87,3h5.94a8,8,0,0,0,5.24-2.26c2.17-2,8.22-8.11,10.16-10.07a15.93,15.93,0,0,0-3.35-26.52Z"/></svg>