<svg xmlns="http://www.w3.org/2000/svg" width="62.216" height="61.274" viewBox="0 0 62.216 61.274"><defs><style>.a,.b{fill:#4b4b4b;stroke:#fff;}.a{stroke-width:0.6px;}.b{stroke-width:0.4px;}</style></defs><g transform="translate(-151.786 -1446.749)"><path class="a" d="M176.221,1490.554a19.306,19.306,0,1,1,19.306-19.307,19.328,19.328,0,0,1-19.306,19.307m0-35.707a16.4,16.4,0,1,0,16.4,16.4,16.419,16.419,0,0,0-16.4-16.4" transform="translate(6.672 6.801)"/><rect class="b" width="2.906" height="8.012" transform="matrix(0.766, -0.643, 0.643, 0.766, 161.791, 1455.16)"/><rect class="b" width="2.905" height="8.01" transform="matrix(0.174, -0.985, 0.985, 0.174, 152.018, 1474.078)"/><rect class="b" width="8.011" height="2.907" transform="translate(155.236 1492.338) rotate(-30.007)"/><rect class="b" width="8.013" height="2.907" transform="translate(170.891 1506.771) rotate(-69.994)"/><rect class="b" width="2.907" height="8.013" transform="translate(189.422 1500.236) rotate(-19.995)"/><rect class="b" width="2.906" height="8.012" transform="translate(202.157 1490.85) rotate(-60.011)"/><rect class="b" width="8.013" height="2.905" transform="translate(205.374 1472.609) rotate(-10.022)"/><rect class="b" width="8.012" height="2.907" transform="translate(196.617 1459.428) rotate(-49.984)"/><rect class="b" width="2.906" height="8.014" transform="translate(181.44 1446.949)"/></g></svg>