<svg xmlns="http://www.w3.org/2000/svg" width="58.166" height="47.845" viewBox="0 0 58.166 47.845"><defs><style>.a{fill:#4b4b4b;}</style></defs><g transform="translate(-149.198 -418.422)"><path class="a" d="M178.394,466.267a4.367,4.367,0,0,1-2.841-1.056c-2.066-1.77-4.031-3.411-5.878-4.955l1.427-1.708c1.855,1.55,3.827,3.2,5.9,4.973a2.139,2.139,0,0,0,2.79,0c2.006-1.719,3.923-3.324,5.726-4.83l.172-.141c10.639-8.861,17.665-14.715,17.665-23.512a13.827,13.827,0,0,0-13.569-14.391h-.025a14.587,14.587,0,0,0-10.552,4.557l-.809.854-.811-.854a14.59,14.59,0,0,0-10.569-4.557H167a13.828,13.828,0,0,0-13.553,14.347,15.621,15.621,0,0,0,1.863,7.458l-1.968,1.039a17.722,17.722,0,0,1-2.119-8.454,16.054,16.054,0,0,1,15.755-16.615H167a16.863,16.863,0,0,1,11.395,4.453,16.854,16.854,0,0,1,11.38-4.453h.025a16.049,16.049,0,0,1,15.773,16.657c0,9.8-7.345,15.916-18.463,25.178l-.17.143c-1.8,1.5-3.7,3.1-5.707,4.809a4.355,4.355,0,0,1-2.841,1.058" transform="translate(1.778 0)"/><path class="a" d="M169.623,453.435l-4.862-19.662L162.887,445.3H149.2V443.07h11.794l3.316-20.388,5.99,24.22,5.06-10.507,5.35,6.674h12.926V445.3H179.642l-3.81-4.753Z" transform="translate(0 3.772)"/></g></svg>