<svg xmlns="http://www.w3.org/2000/svg" width="49.932" height="57.651" viewBox="0 0 49.932 57.651"><defs><style>.a{fill:#4b4b4b;}</style></defs><g transform="translate(-152.246 -1152.467)"><path class="a" d="M199.062,1187.535c.238,3.254.556,12.361-3.651,12.877a20.622,20.622,0,0,1-3.691,0c-4.048-.2-6.787-.117-7.938,2.78-.873,2.222-1.707,4.782-2.322,6.926h-2.084a80.618,80.618,0,0,1,2.56-7.66c1.766-4.447,6.271-4.209,9.882-4.008a21.22,21.22,0,0,0,3.354,0c1.905-.238,2.3-6.827,1.845-11.47a.98.98,0,0,1,.655-1.034,8.082,8.082,0,0,0,2.381-1.25c-.119-.159-.238-.355-.377-.534a15.093,15.093,0,0,1-3.056-10.736c.536-5.656-3.989-16.929-17.284-18.735a23.586,23.586,0,0,0-17.721,4.348,18.358,18.358,0,0,0-7.184,12.262c-1.012,8.255,1.925,11.551,5.04,15.042a38.507,38.507,0,0,1,2.5,3c2.937,3.969-1.012,14.724-3.631,20.777H156.18c3.135-7.146,6.271-16.788,4.187-19.606a36.765,36.765,0,0,0-2.381-2.858c-3.274-3.671-6.648-7.461-5.517-16.592a20.224,20.224,0,0,1,7.938-13.591,25.526,25.526,0,0,1,19.189-4.743c14.625,1.984,19.606,14.565,19.011,20.874a12.978,12.978,0,0,0,2.719,9.426c.278.417.536.776.714,1.113a.892.892,0,0,1,.139.5c0,1.35-1.726,2.322-3.116,2.9" transform="translate(0 0)"/><path class="a" d="M166.134,1172.668a8.176,8.176,0,1,0,8.176,8.176,8.19,8.19,0,0,0-8.176-8.176m0,14.367a6.191,6.191,0,1,1,6.191-6.191,6.2,6.2,0,0,1-6.191,6.191" transform="translate(5.623 19.886)"/><path class="a" d="M163.958,1174.878a3.79,3.79,0,1,0,3.81,3.79,3.79,3.79,0,0,0-3.81-3.79m0,5.6a1.806,1.806,0,1,1,1.826-1.806,1.813,1.813,0,0,1-1.826,1.806" transform="translate(7.799 22.062)"/></g></svg>