<svg xmlns="http://www.w3.org/2000/svg" width="23.8" height="29.75" viewBox="0 0 23.8 29.75"><defs><style>.a,.b{fill:#e1001e;}.a{fill-rule:evenodd;}</style></defs><g transform="translate(-4.5)"><path class="a" d="M16.4,1.983A9.917,9.917,0,0,0,6.483,11.9v8.925H4.5V11.9a11.9,11.9,0,1,1,23.8,0v8.925H26.317V11.9A9.917,9.917,0,0,0,16.4,1.983Z"/><path class="b" d="M22.35,17.733a1.983,1.983,0,0,1,1.983-1.983H28.3v7.933a1.983,1.983,0,0,1-1.983,1.983H24.333a1.983,1.983,0,0,1-1.983-1.983Zm-11.9,0A1.983,1.983,0,0,0,8.467,15.75H4.5v7.933a1.983,1.983,0,0,0,1.983,1.983H8.467a1.983,1.983,0,0,0,1.983-1.983Z" transform="translate(0 -1.867)"/><path class="a" d="M28.775,19.125a.992.992,0,0,1,.992.992v5.95a4.958,4.958,0,0,1-4.958,4.958H17.867a.992.992,0,1,1,0-1.983h6.942a2.975,2.975,0,0,0,2.975-2.975v-5.95A.992.992,0,0,1,28.775,19.125Z" transform="translate(-1.467 -2.267)"/><path class="b" d="M14.625,31.233a1.983,1.983,0,0,1,1.983-1.983h1.983a1.983,1.983,0,0,1,0,3.967H16.608A1.983,1.983,0,0,1,14.625,31.233Z" transform="translate(-1.2 -3.467)"/></g></svg>