<?xml version="1.0" encoding="utf-8"?>
<!-- Generator: Adobe Illustrator 25.0.0, SVG Export Plug-In . SVG Version: 6.00 Build 0)  -->
<svg version="1.1" id="Layer_1" xmlns="http://www.w3.org/2000/svg" xmlns:xlink="http://www.w3.org/1999/xlink" x="0px" y="0px"
	 width="385.6px" height="131.8px" viewBox="0 0 385.6 131.8" style="enable-background:new 0 0 385.6 131.8;" xml:space="preserve"
	>
<style type="text/css">
	.st0{fill:#626161;}
	.st1{fill:#EA0029;}
	.st2{fill:#DB001C;}
	.st3{fill:#E5262B;}
</style>
<g>
	<g>
		<g>
			<g>
				<g>
					<path class="st0" d="M59.4,127.9H9.3c-5,0-8.1-3.1-8.1-6.9c0-6.4,3.9-12.8,14.9-26.7l26.8-34c4.6-5.8,7.9-11.7,8.6-15.3h-51
						v-2.6c0-5.6,2.1-8.9,10.8-8.9h48.9c2.5,0,6.1,2.8,6.1,7.1c0,5.6-4,13.2-11.9,23.3L27.9,97.8c-5.3,6.8-10.1,13.3-12.6,18.6h52.2
						v4.7C67.5,125,64.1,127.9,59.4,127.9"/>
					<path class="st0" d="M191.3,127.9c-8.6,0-16.2-4.7-26.2-24.9l-20-40.4c-3.9-7.9-6.9-12.4-10.4-15.7v81h-5.3
						c-4,0-7.1-3.1-7.1-8.6V33.4h6.1c11.1,0,18.6,7.6,24.2,18.9l20,40.5c3.6,7.2,6.5,14.4,10.7,19.6V33.5h5.3c3.6,0,6.7,2.8,6.7,6.7
						v87.8H191.3z"/>
					<path class="st0" d="M86.5,60.5v58.1c0,6.5,3.5,9.3,8.3,9.3h4.6V60.5H86.5z"/>
					<path class="st1" d="M99.4,47.3v-7.4c0-3.8-3.5-6.4-6.8-6.4h-6.1v13.8H99.4z"/>
					<path class="st0" d="M224.2,33.5h-6.1v27v1.3v56.8c0,6.5,3.5,9.3,8.3,9.3h4.6V61.8v-1.3V39.9C231,36.2,227.5,33.5,224.2,33.5"
						/>
					<path class="st1" d="M378.5,16.3h-9.2V7.1c0-3.9-3.2-7.1-7.1-7.1c-3.9,0-7.1,3.2-7.1,7.1v9.2h-9.2c-3.9,0-7.1,3.2-7.1,7.1
						c0,3.9,3.2,7.1,7.1,7.1h9.2v9.2c0,3.9,3.2,7.1,7.1,7.1c3.9,0,7.1-3.2,7.1-7.1v-9.2h9.2c3.9,0,7.1-3.2,7.1-7.1
						C385.6,19.5,382.4,16.3,378.5,16.3"/>
				</g>
				<path class="st0" d="M322.1,114.7c-2.3-2.3-4.5-4.7-6.9-6.9c-2.2-2-4.5-3.9-7-5.5c-0.2-0.1-0.3-0.2-0.5-0.3
					c-2.2-1.4-5.6-0.7-7.3,2.2l-2.3,3.7c2.6,1.8,5.2,3.8,7.7,5.8c2.5,2,4.8,4.1,7.1,6.4c2.2,2.3,4.3,4.7,6.7,6.8
					c2.2,2,4.5,3.8,7,5.3c2.2,1.4,5.6,0.7,7.3-2.2l2.3-3.7c0,0-7.1-5.2-7.7-5.7C326.2,118.7,324.1,116.7,322.1,114.7z"/>
				<path class="st0" d="M336.1,80.9c0-2.2-0.1-4.5-0.4-6.7c0-0.2-0.1-0.4-0.1-0.5c-0.1-0.9-0.2-1.9-0.4-2.8
					c-0.1-0.9-0.3-1.8-0.5-2.7c-0.2-0.9-0.4-1.8-0.6-2.6c-0.2-0.9-0.4-1.7-0.7-2.5c-0.2-0.8-0.5-1.6-0.8-2.5
					c-0.3-0.8-0.6-1.6-0.9-2.4c-0.3-0.8-0.7-1.5-1-2.3c-0.4-0.7-0.7-1.5-1.1-2.2c-0.4-0.7-0.8-1.4-1.2-2.1c-0.4-0.7-0.9-1.3-1.3-2
					c-0.5-0.6-0.9-1.3-1.4-1.9c-0.5-0.6-1-1.2-1.5-1.8c-0.5-0.6-1.1-1.1-1.6-1.7c-0.5-0.5-1.1-1.1-1.7-1.6c-0.6-0.5-1.2-1-1.8-1.4
					c-0.6-0.5-1.2-0.9-1.9-1.3c-0.6-0.4-1.3-0.8-2-1.2c-0.7-0.4-1.3-0.8-2-1.1c-0.7-0.3-1.4-0.7-2.1-1c-0.7-0.3-1.5-0.6-2.2-0.8
					c-0.8-0.3-1.5-0.5-2.3-0.7c-0.8-0.2-1.6-0.4-2.4-0.6c-0.8-0.2-1.6-0.3-2.4-0.5c-0.8-0.1-1.7-0.2-2.5-0.3
					c-0.9-0.1-1.7-0.2-2.6-0.2c-0.8,0-1.7-0.1-2.5-0.1c-5.4,0-10.8,0.7-16,2.4c-4.5,1.5-8.7,3.7-12.3,6.7c-3.5,2.9-6.4,6.5-8.7,10.4
					c-2.4,4.2-4.1,8.7-5.2,13.4c-1.8,7.5-2.3,15.2-1.4,22.8c0.4,3.9,1.2,7.7,2.3,11.4c1.4,4.5,3.4,8.9,6.1,12.8
					c2.6,3.8,5.9,7.1,9.6,9.6c4,2.7,8.6,4.6,13.3,5.7c4,0.9,8.2,1.3,12.3,1.3c0.9,0,1.8,0,2.6-0.1c0.9,0,1.7-0.1,2.6-0.2
					c0.8-0.1,1.7-0.2,2.5-0.3c0.8-0.1,1.6-0.3,2.4-0.5c0.8-0.2,1.6-0.4,2.4-0.6c0.8-0.2,1.5-0.5,2.3-0.7c0.7-0.3,1.5-0.5,2.2-0.9
					c0.7-0.3,1.4-0.6,2.1-1c0.7-0.3,1.4-0.7,2-1.1c0.7-0.4,1.3-0.8,2-1.2c0.6-0.4,1.3-0.9,1.9-1.3c0.6-0.5,1.2-0.9,1.8-1.5
					c0.6-0.5,1.1-1,1.7-1.6c0.5-0.5,1.1-1.1,1.6-1.7c0.5-0.6,1-1.2,1.5-1.8c0.5-0.6,1-1.2,1.4-1.9c0.5-0.6,0.9-1.3,1.3-2
					c0.4-0.7,0.8-1.4,1.2-2.1c0.4-0.7,0.8-1.4,1.1-2.2c0.4-0.8,0.7-1.5,1-2.3c0.3-0.8,0.6-1.6,0.9-2.4c0.3-0.8,0.5-1.6,0.8-2.5
					c0.2-0.8,0.5-1.7,0.7-2.6c1.2-5,1.7-10.2,1.8-15.4C336.1,82.1,336.1,81.5,336.1,80.9z M292.2,118.7c-5.4,0-10.8-1.2-15.4-4.1
					c-4-2.5-7.1-6.2-9.2-10.4c-2.2-4.3-3.5-9.1-4.1-13.8c-0.9-6.5-0.9-13.2,0.4-19.6c0.9-4.7,2.4-9.4,5-13.5c2.5-4,6.1-7.4,10.4-9.5
					c4-2,8.5-2.8,13-2.8c3.3,0,6.6,0.3,9.8,1c2.8,0.6,5.5,1.6,7.9,3.1c2.3,1.4,4.3,3.1,6,5.2c1.8,2.2,3.2,4.7,4.2,7.3
					c1.2,3.1,2,6.3,2.5,9.6c0.7,4.4,0.9,8.9,0.7,13.3c-0.2,4.4-0.6,8.9-1.8,13.2c-0.8,3.1-1.9,6.1-3.6,8.9c-1.5,2.4-3.3,4.6-5.5,6.4
					c-2.3,1.8-4.9,3.1-7.6,4c-3.2,1-6.5,1.5-9.8,1.7C294.1,118.7,293.1,118.7,292.2,118.7z"/>
			</g>
		</g>
	</g>
</g>
</svg>
