<svg xmlns="http://www.w3.org/2000/svg" width="56" height="56" viewBox="0 0 56 56"><defs><style>.a{fill:#fff;}.b{fill:#e1001e;}</style></defs><g transform="translate(-1284 -1701)"><circle class="a" cx="28" cy="28" r="28" transform="translate(1284 1701)"/><g transform="translate(938.74 270.666)"><g transform="translate(362.192 1444.445)"><path class="b" d="M17.427,8.971A4.073,4.073,0,1,0,21.5,13.044,4.073,4.073,0,0,0,17.427,8.971Zm0,6.11a2.037,2.037,0,1,1,2.037-2.037A2.037,2.037,0,0,1,17.427,15.081Z" transform="translate(-6.36 -1.972)"/><path class="b" d="M24.52,4.477A11.069,11.069,0,0,0,7.42,18.346l7.694,11.813a1.885,1.885,0,0,0,3.159,0l7.7-11.813A11.069,11.069,0,0,0,24.521,4.477Zm-.259,12.757L16.694,28.852,9.126,17.234a9.032,9.032,0,1,1,15.135,0Z" transform="translate(-5.627 -1.238)"/></g></g></g></svg>