<svg xmlns="http://www.w3.org/2000/svg" xmlns:xlink="http://www.w3.org/1999/xlink" width="45.229" height="66" viewBox="0 0 45.229 66"><defs><style>.a{fill:#fff;stroke:#707070;}.b{clip-path:url(#a);}.c,.d{fill:none;stroke:#4b4b4b;stroke-width:2px;}.c{stroke-miterlimit:10;}.d{stroke-linecap:round;stroke-linejoin:round;}</style><clipPath id="a"><rect class="a" width="45.229" height="66" transform="translate(1260.386 2503)"/></clipPath></defs><g class="b" transform="translate(-1260.386 -2503)"><g transform="translate(1112.442 479.365)"><path class="c" d="M165.649,2039.416a5.531,5.531,0,1,1-5.531-5.531A5.529,5.529,0,0,1,165.649,2039.416Z" transform="translate(10.052 0)"/><path class="d" d="M170.558,2047.467c-13.149,0-22.615-10.568-22.615-10.568s5.164,12.453,15.159,17.041l3.769,42.936" transform="translate(0 4.56)"/><path class="d" d="M156.943,2047.467c13.152,0,22.615-10.568,22.615-10.568s-5.161,12.453-15.157,17.041l-3.769,42.936" transform="translate(13.615 4.56)"/></g></g></svg>