<svg xmlns="http://www.w3.org/2000/svg" width="44.817" height="63.031" viewBox="0 0 44.817 63.031"><defs><style>.a{fill:#4b4b4b;}</style></defs><path class="a" d="M188.113,2343.875l0-.346a10.778,10.778,0,0,0-10.726-10.831h-.4a11.1,11.1,0,0,0-3.67.612,9.068,9.068,0,0,1-.382-2.648,13.558,13.558,0,0,1,3-8.429l2.215-2.741-8.788-.044-.618,1.022a20.181,20.181,0,0,0-2.927,10.365,14.9,14.9,0,0,0,1.722,7.006,11.093,11.093,0,0,0-1.785,5.978,2.664,2.664,0,0,1-2.94,2.636l-5.634-.589a10.59,10.59,0,0,0-1.064-.058,10.711,10.711,0,0,0-10.749,10.644,9.582,9.582,0,0,0,.57,3.278l-.1.067a5.651,5.651,0,0,0,.882,9.907,5.037,5.037,0,0,0,1.111,7.888,3.047,3.047,0,0,0,2.5,4.773l23.373.113a12.191,12.191,0,0,0,5.62-23.041,18.343,18.343,0,0,0,8.794-15.561m-20.263-13.031a18.152,18.152,0,0,1,2.63-9.321l3.448-.022a15.634,15.634,0,0,0-3.03,9.15,11.111,11.111,0,0,0,.552,3.493,11.267,11.267,0,0,0-2.5,1.923,12.829,12.829,0,0,1-1.1-5.223m1.892,29.256a11.233,11.233,0,0,1-8.922-4.515l-1.212-1.631a5.109,5.109,0,0,0-4.055-2.052,4.065,4.065,0,0,0-.039,8.13l7.2.035a13.255,13.255,0,0,0,7.019,2.067,18.148,18.148,0,0,0,7.263-1.48,10.16,10.16,0,0,1-3.287,19.792l-23.373-.113a1.016,1.016,0,1,1,.01-2.032l15.243.072.01-2.033-15.243-.073a3.049,3.049,0,1,1,.029-6.1l23.374.112.01-2.031-24.838-.121a3.605,3.605,0,0,1-2.091-6.539,9.626,9.626,0,0,0,8.112,4.535l19.842.1a3.049,3.049,0,1,1-.029,6.1l-15.245-.074-.008,2.033,15.243.074a5.082,5.082,0,0,0,.048-10.164l-19.842-.1a7.6,7.6,0,0,1-7.56-7.632,8.685,8.685,0,0,1,9.567-8.575l5.634.591a4.7,4.7,0,0,0,5.185-4.648,9.155,9.155,0,0,1,9.187-9.1l.4,0h0a8.748,8.748,0,0,1,8.7,8.789l0,.346a16.306,16.306,0,0,1-16.338,16.235m-9.522-2.078-4.7-.024a2.032,2.032,0,1,1,.019-4.063,3.061,3.061,0,0,1,2.432,1.231l1.212,1.63a13.269,13.269,0,0,0,1.032,1.225" transform="translate(-143.298 -2319.447)"/></svg>