<svg xmlns="http://www.w3.org/2000/svg" width="42.279" height="49.803" viewBox="0 0 42.279 49.803"><defs><style>.a,.b{fill:none;stroke-linecap:round;}.b{stroke:#2c379d;stroke-width:2px;}.c,.d{stroke:none;}.d{fill:#2c379d;}</style></defs><g transform="translate(-61.068)"><g class="a" transform="translate(83.059 0) rotate(30)"><path class="c" d="M11.713,0A11.713,11.713,0,0,1,23.426,11.713V32.27A11.713,11.713,0,0,1,0,32.27V11.713A11.713,11.713,0,0,1,11.713,0Z"/><path class="d" d="M 11.71282958984375 -7.62939453125e-06 L 11.71282958984375 2.299995422363281 C 6.522590637207031 2.300003051757812 2.300010681152344 6.522575378417969 2.300010681152344 11.71281433105469 L 2.299999237060547 32.26998519897461 C 2.299999237060547 37.46022415161133 6.52256965637207 41.68279266357422 11.71281051635742 41.68279266357422 C 16.90304946899414 41.68278503417969 21.12562942504883 37.46021270751953 21.12562942504883 32.26997375488281 L 21.12564086914062 11.71280288696289 C 21.12564086914062 6.522563934326172 16.9030704498291 2.299995422363281 11.71282958984375 2.299995422363281 L 11.71282958984375 -7.62939453125e-06 M 11.71282958984375 -7.62939453125e-06 C 18.181640625 -7.62939453125e-06 23.42564010620117 5.243995666503906 23.42564010620117 11.71280288696289 L 23.42563056945801 32.26997375488281 C 23.42563056945801 38.73878479003906 18.18161964416504 43.98278427124023 11.71281051635742 43.98279571533203 C 5.243999481201172 43.98279571533203 0 38.73879241943359 0 32.26998519897461 L 9.5367431640625e-06 11.71281433105469 C 9.5367431640625e-06 5.244003295898438 5.244020462036133 3.814697265625e-06 11.71282958984375 -7.62939453125e-06 Z"/></g><path class="b" d="M0,0V11.1s.34,4.859,3.418,6.636" transform="translate(78.809 19.512) rotate(30)"/></g></svg>