<svg xmlns="http://www.w3.org/2000/svg" width="27.59" height="37.112" viewBox="0 0 27.59 37.112"><defs><style>.a{fill:#e1001e;}</style></defs><g transform="translate(-362.192 -1444.445)"><g transform="translate(362.192 1444.445)"><path class="a" d="M18.43,8.971a5.076,5.076,0,1,0,5.076,5.076A5.076,5.076,0,0,0,18.43,8.971Zm0,7.615a2.538,2.538,0,1,1,2.538-2.538A2.538,2.538,0,0,1,18.43,16.586Z" transform="translate(-4.637 -0.247)"/><path class="a" d="M29.175,5.275A13.8,13.8,0,0,0,7.862,22.56l9.59,14.723a2.35,2.35,0,0,0,3.937,0L30.98,22.56a13.8,13.8,0,0,0-1.8-17.285Zm-.323,15.9L19.42,35.655,9.988,21.175a11.257,11.257,0,1,1,18.864,0Z" transform="translate(-5.627 -1.238)"/></g></g></svg>