<?xml version="1.0" encoding="utf-8"?>
<!-- Generator: Adobe Illustrator 25.2.0, SVG Export Plug-In . SVG Version: 6.00 Build 0)  -->
<svg version="1.1" id="Warstwa_1" xmlns="http://www.w3.org/2000/svg" xmlns:xlink="http://www.w3.org/1999/xlink" x="0px" y="0px"
	 viewBox="0 0 32.9 32.9" style="enable-background:new 0 0 32.9 32.9;" xml:space="preserve">
<style type="text/css">
	.st0{fill:#E1001E;}
</style>
<path class="st0" d="M27.9,11.4h-6.3V5c0-2.8-2.3-5-5-5h-0.1c-2.8,0-5,2.3-5,5v6.3H5c-2.8,0-5,2.3-5,5v0.1c0,2.8,2.3,5,5,5h6.3v6.3
	c0,2.8,2.3,5,5,5h0.1c2.8,0,5-2.3,5-5v-6.3h6.3c2.8,0,5-2.3,5-5v-0.1C32.9,13.6,30.6,11.4,27.9,11.4z"/>
</svg>
