<svg xmlns="http://www.w3.org/2000/svg" width="17.643" height="17.035" viewBox="0 0 17.643 17.035"><defs><style>.a{fill:#fff;stroke:#fff;stroke-linecap:round;stroke-width:0.5px;}</style></defs><g transform="translate(0.25 -2)"><path class="a" d="M11.362,30.431a1.181,1.181,0,1,1-1.181-1.181A1.181,1.181,0,0,1,11.362,30.431Z" transform="translate(-4.276 -12.827)"/><path class="a" d="M27.112,30.431a1.181,1.181,0,1,1-1.181-1.181A1.181,1.181,0,0,1,27.112,30.431Z" transform="translate(-11.758 -12.827)"/><path class="a" d="M16.535,5.2H3.437l-.484-2.48a.591.591,0,0,0-.591-.472H0V3.431H1.878L4.134,14.769a.591.591,0,0,0,.591.472h10.63V14.061H5.208L4.724,11.7h10.63a.591.591,0,0,0,.591-.461l1.181-5.315a.591.591,0,0,0-.591-.72Zm-1.653,5.315H4.5L3.673,6.384H15.8Z" transform="translate(0 0)"/></g></svg>