<svg xmlns="http://www.w3.org/2000/svg" width="20.592" height="20.572" viewBox="0 0 20.592 20.572"><defs><style>.a{fill:#4b4b4b;}</style></defs><path class="a" d="M19.305,19.285H11.583a1.254,1.254,0,0,1-.9-.372,1.215,1.215,0,0,1-.382-.9,1.3,1.3,0,0,1,1.287-1.3h7.722a1.228,1.228,0,0,1,.915.382,1.263,1.263,0,0,1,.372.915,1.27,1.27,0,0,1-1.287,1.277Zm-2.574-5.148H11.583a1.254,1.254,0,0,1-.9-.372,1.263,1.263,0,0,1,0-1.81,1.254,1.254,0,0,1,.9-.372h5.148a1.245,1.245,0,0,1,.915.372,1.287,1.287,0,0,1,0,1.81A1.243,1.243,0,0,1,16.731,14.137ZM14.157,9.009H11.583a1.3,1.3,0,0,1-1.287-1.3,1.215,1.215,0,0,1,.382-.9,1.254,1.254,0,0,1,.9-.372h2.574a1.245,1.245,0,0,1,.915.372,1.229,1.229,0,0,1,.372.9,1.269,1.269,0,0,1-.372.915A1.226,1.226,0,0,1,14.157,9.009ZM11.593,3.861a1.249,1.249,0,0,1-.915-.382,1.249,1.249,0,0,1-.382-.915,1.215,1.215,0,0,1,.382-.9,1.266,1.266,0,0,1,.915-.372,1.215,1.215,0,0,1,.9.382,1.254,1.254,0,0,1,.372.9,1.254,1.254,0,0,1-.372.9A1.215,1.215,0,0,1,11.593,3.861Zm-7.21,16.55a.866.866,0,0,1-.523.161.866.866,0,0,1-.523-.161L.221,16.248a.476.476,0,0,1,0-.8H2.594V1.287a1.254,1.254,0,0,1,.372-.9A1.215,1.215,0,0,1,3.871,0a1.249,1.249,0,0,1,.915.382,1.237,1.237,0,0,1,.382.9V15.444H7.521a.5.5,0,0,1,0,.8Z"/></svg>