<svg xmlns="http://www.w3.org/2000/svg" width="20.572" height="20.572" viewBox="0 0 20.572 20.572"><defs><style>.a{fill:#4b4b4b;}</style></defs><path class="a" d="M0,10.306A10.092,10.092,0,0,1,1.385,5.133,10.234,10.234,0,0,1,5.14,1.378,10.248,10.248,0,0,1,14.282.817,10.138,10.138,0,0,1,19.756,6.3a10.216,10.216,0,0,1,0,8,10.269,10.269,0,0,1-2.195,3.279,10.344,10.344,0,0,1-3.279,2.182,10.238,10.238,0,0,1-8-.007A10.116,10.116,0,0,1,.81,14.288,10.013,10.013,0,0,1,0,10.306Zm2.262,0a7.768,7.768,0,0,0,2.369,5.648,7.727,7.727,0,0,0,5.662,2.369,7.833,7.833,0,0,0,4.016-1.077,8.037,8.037,0,0,0,2.931-2.925,7.991,7.991,0,0,0,0-8.037,8.033,8.033,0,0,0-2.931-2.931,7.833,7.833,0,0,0-4.016-1.078A7.822,7.822,0,0,0,6.277,3.353,8.039,8.039,0,0,0,3.346,6.284,7.824,7.824,0,0,0,2.262,10.306Zm7.241,0V4.216a.763.763,0,1,1,1.526,0V8.981l2.543-1.432a.723.723,0,0,1,.575-.081.681.681,0,0,1,.455.375.7.7,0,0,1,.074.575.769.769,0,0,1-.355.469l-3.546,1.981a.75.75,0,0,1-.509.2.753.753,0,0,1-.763-.763Z"/></svg>