<svg id="Warstwa_1" data-name="Warstwa 1" xmlns="http://www.w3.org/2000/svg" width="77.5" height="77.5" viewBox="0 0 77.5 77.5"><defs><style>.cls-1{fill:#333;}</style></defs><path class="cls-1" d="M2.74,68.92a.76.76,0,0,0,.76.76H73.59a.76.76,0,1,0,0-1.52H68.92l.35-.48a5.55,5.55,0,0,0,0-6.55L69,60.76l.44-.1a6.13,6.13,0,0,0,2.38-1.15,1.53,1.53,0,0,0,.23-2.14,1.89,1.89,0,0,0-.2-.2L62.09,48.8a5.56,5.56,0,0,1-1.65-2.45l-4.35-13a8.91,8.91,0,0,0-5.77-5.67l-7.68-2.41.5-.35A7.2,7.2,0,0,0,46.2,19V14.12a7.2,7.2,0,0,0-14.4,0v4.93a7.23,7.23,0,0,0,2.81,5.7l.48.36-.58.16-.54.16-7.2,2.26A9,9,0,0,0,21,33.36l-4.35,13A5.53,5.53,0,0,1,15,48.79L5.21,57.17a1.49,1.49,0,0,0-.53,1A1.54,1.54,0,0,0,5,59.31a1.8,1.8,0,0,0,.2.19,6,6,0,0,0,2.5,1.18l.39.08-.19.36a6.23,6.23,0,0,0-.35,5.17,5.52,5.52,0,0,0,.76,1.39l.37.48H3.5A.76.76,0,0,0,2.74,68.92Zm65.91-3.34a4,4,0,0,1-1.38,2l-.72.56H43.85l0-.25a5.09,5.09,0,0,0-1.18-2.46l-.4-.46L45,64.84a.74.74,0,0,0,.68-.82.76.76,0,0,0-.77-.69l-5.73.32c-.3,0-.55-.09-.8-.11L22,61.83a.77.77,0,0,0-.77.73.77.77,0,0,0,.63.78L38.17,65c.25,0,.49.06.72.1a3.89,3.89,0,0,1,3.35,2.61l.14.4h-30A3.61,3.61,0,0,1,9,65.74a4.76,4.76,0,0,1,1.07-5l.06-.06.07,0,18.58-5.58,19.61,0L66,60.5a4.07,4.07,0,0,1,2.7,5.08ZM49.22,53.81V43.19l.58-.12,3.73,9.3.06.11A7,7,0,0,0,56.2,55l1.24.69-.24.55Zm9.78-7a7.16,7.16,0,0,0,2,3l.15.13,9.81,8.38-.33.22a4.34,4.34,0,0,1-4.59.18l-9.06-5a5.52,5.52,0,0,1-2-1.92l-3.46-8.6L57,40.76ZM33.32,19.05V14.12a5.68,5.68,0,0,1,11.36,0v4.93a5.68,5.68,0,0,1-11.36,0ZM22.43,33.84a7.47,7.47,0,0,1,4.8-4.7h0l7.19-2.26a13.66,13.66,0,0,1,8.25,0l7.19,2.26a7.47,7.47,0,0,1,4.8,4.7l1.83,5.49L50.9,41.76l-1.74-4.32a.76.76,0,0,0-1.46.28V53.61H29.39V37.72a.8.8,0,0,0-.23-.54.75.75,0,0,0-.53-.22h0a.77.77,0,0,0-.71.48l-1.52,3.8-5.52-2.76ZM6.5,58.55l-.33-.22L16,49.94a6.93,6.93,0,0,0,2.1-3.11l2.31-6.9,5.44,2.72L25,44.82a.76.76,0,1,0,1.39.59l.94-2.33.58.11V53.82L20,56.16l-.24-.55,1.09-.6a7.12,7.12,0,0,0,2.61-2.53.54.54,0,0,0,.05-.11l.79-2a.75.75,0,0,0-1.4-.56l-.76,1.88a5.44,5.44,0,0,1-2,2l-9.07,5a4.32,4.32,0,0,1-4.58-.18Z"/></svg>