<svg xmlns="http://www.w3.org/2000/svg" width="65.122" height="53.567" viewBox="0 0 65.122 53.567"><defs><style>.a{fill:#4b4b4b;}</style></defs><g transform="translate(-149.198 -418.422)"><path class="a" d="M181.645,471.989a4.889,4.889,0,0,1-3.181-1.182c-2.313-1.982-4.513-3.818-6.581-5.547l1.6-1.912c2.077,1.735,4.285,3.58,6.6,5.568a2.4,2.4,0,0,0,3.124,0c2.246-1.925,4.392-3.721,6.41-5.408l.192-.158c11.911-9.92,19.778-16.474,19.778-26.323A15.481,15.481,0,0,0,194.4,420.913h-.027a16.331,16.331,0,0,0-11.814,5.1l-.906.956-.908-.956a16.335,16.335,0,0,0-11.833-5.1h-.025a15.482,15.482,0,0,0-15.174,16.063,17.489,17.489,0,0,0,2.085,8.35l-2.2,1.163a19.842,19.842,0,0,1-2.372-9.465,17.973,17.973,0,0,1,17.64-18.6h.034a18.88,18.88,0,0,1,12.757,4.986,18.87,18.87,0,0,1,12.74-4.986h.027a17.968,17.968,0,0,1,17.659,18.648c0,10.967-8.224,17.819-20.671,28.189l-.19.16c-2.012,1.68-4.148,3.466-6.389,5.385a4.876,4.876,0,0,1-3.181,1.184" transform="translate(2.231)"/><path class="a" d="M172.066,457.112,166.622,435.1l-2.1,12.9H149.2v-2.493h13.2l3.713-22.826,6.706,27.117,5.665-11.763,5.99,7.472h14.471V448H183.282l-4.266-5.321Z" transform="translate(0 4.732)"/></g></svg>