<svg xmlns="http://www.w3.org/2000/svg" width="59.806" height="60" viewBox="0 0 59.806 60"><defs><style>.a{fill:#4b4b4b;}</style></defs><g transform="translate(-0.097)"><path class="a" d="M13.585,32.609a.877.877,0,0,0-1.07.626L11.262,38.02.289,51.716a.877.877,0,0,0,1.369,1.1l11.09-13.842a.875.875,0,0,0,.164-.326l1.3-4.965a.877.877,0,0,0-.626-1.07Z"/><path class="a" d="M15.3,30.212A10.232,10.232,0,0,1,18.43,26.38L23.7,22.453a3.768,3.768,0,0,1,2.452-.74l5.05.272a1.775,1.775,0,0,1,.092,3.537L26.852,26a.877.877,0,0,0-.754.643l-1.7,6.269a4.227,4.227,0,0,0-.127,1.529l.262,2.633a.877.877,0,0,0,.872.79c.029,0,.058,0,.088,0a.877.877,0,0,0,.786-.959l-.262-2.633a2.478,2.478,0,0,1,.074-.9l1.541-5.689,3.848-.41a3.528,3.528,0,0,0-.184-7.032l-5.05-.272a5.535,5.535,0,0,0-3.384.937l.013-.033a15.4,15.4,0,0,1,6.195-7.353l3.8-2.356a.875.875,0,0,0,.224-.2l7.592-9.535A.877.877,0,0,0,39.314.331l-7.5,9.416-3.668,2.276a17.142,17.142,0,0,0-6.9,8.185l-1.093,2.7-2.777,2.068a11.991,11.991,0,0,0-3.67,4.491.877.877,0,0,0,1.586.748Z"/><path class="a" d="M59.574,2.848a.877.877,0,0,0-1.233.136L53.468,9.067a.877.877,0,0,0,1.369,1.1L59.71,4.081a.877.877,0,0,0-.136-1.233Z"/><path class="a" d="M52.361,11.851a.877.877,0,0,0-1.233.136l-3.72,4.643a1.779,1.779,0,0,0-.389,1.1l-.025,4-.894-.04a3.352,3.352,0,0,0-3.492,3.191l-.011.243a3.319,3.319,0,0,0,.7,2.2,3.3,3.3,0,0,0-.478.362,3.25,3.25,0,0,0-1.061,2.268l-.011.235a3.256,3.256,0,0,0,.674,2.137,3.271,3.271,0,0,0-1.5,2.6l-.011.235a3.248,3.248,0,0,0,.744,2.229,3.335,3.335,0,0,0-1.136,4.414.874.874,0,0,0-.046.192l-.519,4.3a.209.209,0,0,1-.038.1l-2.377,3.3a.98.98,0,0,1-1.7-.957l1.34-2.046a5.07,5.07,0,0,0,.263-.516,2.752,2.752,0,0,0,.17-.692l.833-7.642a.877.877,0,1,0-1.744-.19l-.833,7.642a.993.993,0,0,1-.042.192L32.379,50.82a1.162,1.162,0,0,1-2.015-1.147l1.427-2.917a5.691,5.691,0,0,0,.23-.889l.955-8.306a.877.877,0,0,0-1.743-.2l-.955,8.306a.909.909,0,0,1-.17.433l-3.347,4.57A1.142,1.142,0,0,1,24.8,49.524l1.825-4.042a3.8,3.8,0,0,0,.318-1.939l-.291-2.929a.877.877,0,1,0-1.745.174l.291,2.929a2.046,2.046,0,0,1-.171,1.043L23.2,48.8a2.881,2.881,0,0,0-.244,1.445l-1.268.441a1.633,1.633,0,0,0-.74.523l-5.9,7.364a.877.877,0,1,0,1.369,1.1L22.3,52.334l1.337-.465a2.889,2.889,0,0,0,4.543-.164l.457-.625c.012.036.023.071.036.106a2.914,2.914,0,0,0,5.176.594l.689-1.052a2.734,2.734,0,0,0,4.427-.011l.4-.55a2.789,2.789,0,0,0,4.556.273l1.446-1.8a3.9,3.9,0,0,0,.832-2l.375-3.259a3.369,3.369,0,0,0,2.08-2.869,3.32,3.32,0,0,0-.739-2.336,3.269,3.269,0,0,0,1.542-2.63l.011-.235a3.256,3.256,0,0,0-.65-2.106,3.271,3.271,0,0,0,1.546-2.632l.011-.235a3.247,3.247,0,0,0-.7-2.167,3.343,3.343,0,0,0,1.535-2.664l.011-.242a3.346,3.346,0,0,0-2.47-3.38l.029-4.16,3.72-4.643a.877.877,0,0,0-.136-1.233ZM48.219,29.169a1.508,1.508,0,0,1,.4,1.092L48.6,30.5a1.517,1.517,0,0,1-1.584,1.448l-2.28-.119A1.519,1.519,0,0,1,43.5,30.266l.011-.235a1.518,1.518,0,0,1,1.514-1.449c.023,0,2.143.095,2.143.095a1.507,1.507,0,0,1,1.052.492Zm-.521,6.3a1.519,1.519,0,0,1-1.584,1.448l-2-.09a1.518,1.518,0,0,1-1.448-1.585l.011-.235a1.519,1.519,0,0,1,1.584-1.448l2.21.115a1.519,1.519,0,0,1,1.241,1.559ZM43.992,47.54l-1.446,1.8a1.041,1.041,0,0,1-1.673-1.237l.48-.7,0-.008a1.977,1.977,0,0,0,.338-.88l.393-3.258a3.345,3.345,0,0,0,1.22.289l1.468.066-.325,2.828A2.149,2.149,0,0,1,43.992,47.54ZM46.9,40.394a1.6,1.6,0,0,1-1.662,1.484l-1.85-.083a1.594,1.594,0,0,1-1.519-1.7,1.6,1.6,0,0,1,1.662-1.484l1.85.083a1.594,1.594,0,0,1,1.519,1.7Zm2.569-15.205-.011.242a1.592,1.592,0,0,1-1.661,1.518l-1.925-.087A1.592,1.592,0,0,1,44.35,25.2l.011-.243a1.6,1.6,0,0,1,1.661-1.518l1.925.087a1.591,1.591,0,0,1,1.518,1.662Z"/></g></svg>