<svg xmlns="http://www.w3.org/2000/svg" width="62.132" height="60.468" viewBox="0 0 62.132 60.468"><defs><style>.a{fill:#333;stroke:#fff;stroke-width:0.3px;}</style></defs><g transform="translate(0.276 0.15)"><path class="a" d="M202.436,447.754l-.181.884.174-.885a.9.9,0,1,0-.349,1.77l.016,0a.919.919,0,0,0,.171.016.9.9,0,0,0,.168-1.789Zm0,0" transform="translate(-177.135 -393.884)"/><path class="a" d="M261.76,450.26l.09.9-.093-.9a.9.9,0,0,0,.091,1.8c.031,0,.063,0,.093,0l.025,0a.9.9,0,0,0-.207-1.792Zm0,0" transform="translate(-229.562 -396.1)"/><path class="a" d="M232.051,451.232h-.013a.9.9,0,0,0-.935.861.907.907,0,0,0,.866.941h.042a.9.9,0,0,0,.04-1.8Zm0,0" transform="translate(-203.306 -396.958)"/><path class="a" d="M173.788,439.847l-.011,0a.9.9,0,0,0-1.148.546.9.9,0,1,0,1.16-.542Zm0,0" transform="translate(-151.82 -386.893)"/><path class="a" d="M291.032,444.832l.222.874-.225-.873a.9.9,0,0,0,.224,1.776.893.893,0,0,0,.226-.029l.024-.006a.9.9,0,0,0-.471-1.742Zm0,0" transform="translate(-255.43 -391.303)"/><path class="a" d="M319.135,435.029l.358.828-.36-.827a.9.9,0,1,0,.72,1.654l.022-.01a.9.9,0,0,0-.74-1.645Zm0,0" transform="translate(-280.272 -382.638)"/><path class="a" d="M147.383,80.494a.9.9,0,1,0-.421-1.7l-.011.006a.9.9,0,0,0,.432,1.693Zm0,0" transform="translate(-128.86 -69.224)"/><path class="a" d="M63.72,164.946a.9.9,0,0,0,1.218-.38l.016-.031a.9.9,0,1,0-1.234.412Zm0,0" transform="translate(-55.631 -143.601)"/><path class="a" d="M52.209,192.751a.9.9,0,0,0,1.144-.565l.012-.036a.9.9,0,1,0-1.155.6Zm0,0" transform="translate(-45.391 -168.011)"/><path class="a" d="M79.334,139.237a.9.9,0,0,0,1.26-.2l.012-.016a.9.9,0,0,0-1.468-1.049l.727.535-.73-.531A.9.9,0,0,0,79.334,139.237Zm0,0" transform="translate(-69.466 -121.047)"/><path class="a" d="M121.947,96.634a.906.906,0,1,0-.522-1.639l-.023.016a.9.9,0,0,0,.545,1.623Zm0,0" transform="translate(-106.486 -83.415)"/><path class="a" d="M49.68,310.8a.9.9,0,1,0-.012-.039l.012.039Zm0,0" transform="translate(-43.666 -272.38)"/><path class="a" d="M99.292,116.418a.9.9,0,1,0-.63-1.547l-.015.015a.9.9,0,0,0,.645,1.532Zm0,0" transform="translate(-86.556 -100.823)"/><path class="a" d="M45.146,280.979a.9.9,0,0,0-1.791.223l.005.036a.9.9,0,0,0,1.785-.259Zm0,0" transform="translate(-38.136 -246.493)"/><path class="a" d="M42.466,251.964h.027a.9.9,0,0,0,.9-.876v-.039a.9.9,0,1,0-.929.914Zm0,0" transform="translate(-36.589 -220.061)"/><path class="a" d="M45.075,221.986a.929.929,0,0,0,.16.014.9.9,0,0,0,.887-.743c0-.013,0-.026.006-.039a.9.9,0,1,0-1.053.769Zm0,0" transform="translate(-39 -193.701)"/><path class="a" d="M403.081,143.179a.9.9,0,0,0,1.485-1.024l-.75.5.747-.506a.9.9,0,1,0-1.494,1.012Zm0,0" transform="translate(-354.454 -124.704)"/><path class="a" d="M436.742,229.028a.9.9,0,0,0-.8,1l0,.039a.9.9,0,0,0,.892.774.925.925,0,0,0,.129-.009.908.908,0,0,0-.23-1.8Zm0,0" transform="translate(-383.508 -201.476)"/><path class="a" d="M429.675,199.443l0,.012a.9.9,0,0,0,.865.648.888.888,0,0,0,.255-.037.9.9,0,0,0,.611-1.12l0-.012a.9.9,0,0,0-1.731.509Zm0,0" transform="translate(-377.964 -174.436)"/><path class="a" d="M418.631,170.268a.907.907,0,0,0,.814.506.9.9,0,0,0,.808-1.3l-.818.381.817-.383a.9.9,0,0,0-1.634.766Zm0,0" transform="translate(-368.193 -148.635)"/><path class="a" d="M383.461,118.893a.909.909,0,1,0-.027-.029Zm0,0" transform="translate(-337.105 -103.236)"/><path class="a" d="M438.245,260.385a.908.908,0,0,0-.077,1.814h.051a.9.9,0,0,0,.9-.852v-.037A.9.9,0,0,0,438.245,260.385Zm0,0" transform="translate(-384.718 -229.066)"/><path class="a" d="M334.022,80.963l.022.012a.9.9,0,0,0,1.215-.371.9.9,0,0,0-.366-1.221l-.436.789.434-.791a.9.9,0,1,0-.867,1.582Zm0,0" transform="translate(-293.435 -69.736)"/><path class="a" d="M360.235,97.964l.014.011a.9.9,0,0,0,1.09-1.438l-.006,0a.9.9,0,1,0-1.1,1.431Zm0,0" transform="translate(-316.597 -84.757)"/><path class="a" d="M61.024,44.975,56.79,40.733a1.9,1.9,0,0,0-2.7,0l-.1.1-.278-.278a3.641,3.641,0,0,1-.79-1.182.879.879,0,0,0-.064-.167,3.648,3.648,0,0,1-.21-1.225v-1.2a.909.909,0,1,0-.006-1.6,5.086,5.086,0,0,0-1.491-3.392l-4.108-4.115a4.874,4.874,0,0,0-6.233-.56l-.436-.438V16.353a5.122,5.122,0,0,0-1.271-3.378,3.64,3.64,0,0,1-.9-2.4V9.816h.062a1.909,1.909,0,0,0,1.907-1.908v-6A1.909,1.909,0,0,0,38.266,0H21.415a1.909,1.909,0,0,0-1.907,1.908v6a1.909,1.909,0,0,0,1.907,1.908h.139v.4a3.619,3.619,0,0,1-1.065,2.574l-1.819,1.822a5.089,5.089,0,0,0-1.5,3.619v5.82a4.864,4.864,0,0,0,.524,2.2,4.844,4.844,0,0,0-3.165,1.423l-4.108,4.115a5.09,5.09,0,0,0-1.5,3.619v2.577a3.619,3.619,0,0,1-1.064,2.574l-.275.275,0,0-.1-.1a1.9,1.9,0,0,0-2.7,0L.556,44.975a1.912,1.912,0,0,0,0,2.7l1.45,1.452A.9.9,0,1,0,3.283,47.85L1.833,46.4a.1.1,0,0,1,0-.148l4.235-4.242a.1.1,0,0,1,.143,0l.736.738h0L17,52.816l1.126,1.129a.1.1,0,0,1,0,.148l-4.235,4.242a.1.1,0,0,1-.144,0L5.837,50.409A.9.9,0,1,0,4.56,51.683l7.912,7.926a1.9,1.9,0,0,0,2.7,0L19.4,55.367a1.912,1.912,0,0,0,0-2.7l-.046-.046.534-.535a3.625,3.625,0,0,1,2.334-1.058,5.1,5.1,0,0,0,3.285-1.489l3.89-3.9a3.089,3.089,0,0,0,2.233-2.353,3.076,3.076,0,0,0,4.4-2.783V38.364a3.074,3.074,0,0,0,4.349-2.8V29.228l2.775,2.788a.9.9,0,1,0,1.279-1.273l-2.313-2.325a3.072,3.072,0,0,1,3.652.524l4.108,4.115a3.3,3.3,0,0,1,.969,2.344v2.577a5.412,5.412,0,0,0,1.591,3.849l.28.28-1.308,1.311L43.5,51.346l-.441-.442-.014-.013-.078-.078a5.431,5.431,0,0,0-3.493-1.583,3.308,3.308,0,0,1-2.127-.965L34.38,45.316A.9.9,0,1,0,33.107,46.6l2.962,2.946a5.1,5.1,0,0,0,3.285,1.489,3.626,3.626,0,0,1,2.333,1.058l.044.044a.868.868,0,0,0,.075.075l.416.416-.046.047a1.912,1.912,0,0,0,0,2.7l4.235,4.242a1.906,1.906,0,0,0,2.7,0L61.024,47.672a1.912,1.912,0,0,0,0-2.7Zm-7.768-8.97-.017,0-.164-.033ZM24.234,48.266a3.3,3.3,0,0,1-2.124.964,5.431,5.431,0,0,0-3.494,1.583l-.532.533-.479-.48-.018-.018-8.725-8.74.28-.28a5.412,5.412,0,0,0,1.591-3.849V35.4a3.3,3.3,0,0,1,.969-2.344l4.108-4.115a3.072,3.072,0,0,1,3.657-.522L17.15,30.743a.9.9,0,0,0,1.277,1.275l2.768-2.773V40.506a3.076,3.076,0,0,0,4.412,2.775,3.091,3.091,0,0,0,1.529,2.077Zm14.34-12.706a1.273,1.273,0,1,1-2.546,0V25.5a.9.9,0,1,0-1.8,0V40.506a1.272,1.272,0,0,1-2.527.211V25.488a.912.912,0,0,0-1.823.01V40.506a3.093,3.093,0,0,0,.019.338v1.818a1.273,1.273,0,1,1-2.545,0V25.477a.9.9,0,0,0-1.8,0V40.506a1.273,1.273,0,1,1-2.545,0V23.726a.9.9,0,1,0-1.8,0v3.1a.886.886,0,0,0-.217.1,3.087,3.087,0,0,1-2-2.887v-5.82a3.3,3.3,0,0,1,.969-2.344l1.819-1.822a5.411,5.411,0,0,0,1.592-3.849v-.4h1.814a.9.9,0,1,0,0-1.8H21.415a.1.1,0,0,1-.1-.1v-6a.1.1,0,0,1,.1-.1h16.85a.1.1,0,0,1,.1.1v6a.1.1,0,0,1-.1.1H29.407a.9.9,0,0,0,0,1.8H36.4v.756a5.447,5.447,0,0,0,1.351,3.593,3.317,3.317,0,0,1,.824,2.188ZM59.747,46.4,47.831,58.334a.1.1,0,0,1-.072.03.1.1,0,0,1-.072-.03l-4.235-4.242a.1.1,0,0,1,0-.148l.682-.683h0l6.917-6.929,4.316-4.324a.1.1,0,0,1,.143,0l4.235,4.242a.1.1,0,0,1,0,.148Zm0,0" transform="translate(0)"/><path class="a" d="M194.777,32.8a.962.962,0,1,0,.961.962A.962.962,0,0,0,194.777,32.8Zm0,0" transform="translate(-170.505 -28.859)"/><path class="a" d="M456.375,374.688a.962.962,0,1,0,.96.962A.963.963,0,0,0,456.375,374.688Zm0,0" transform="translate(-400.639 -329.622)"/><path class="a" d="M110.932,444.165a.961.961,0,1,0-.96.962A.962.962,0,0,0,110.932,444.165Zm0,0" transform="translate(-95.9 -389.896)"/></g></svg>